<svg xmlns="http://www.w3.org/2000/svg" xmlns:xlink="http://www.w3.org/1999/xlink" viewBox="0,0,255.99431,255.99431" width="48px" height="48px" fill-rule="nonzero"><g fill="#000000" fill-rule="nonzero" stroke="none" stroke-width="1" stroke-linecap="butt" stroke-linejoin="miter" stroke-miterlimit="10" stroke-dasharray="" stroke-dashoffset="0" font-family="none" font-weight="none" font-size="none" text-anchor="none" style="mix-blend-mode: normal"><g transform="scale(5.33333,5.33333)"><path d="M14.5,43.1c-1,0 -1.7,-0.3 -2.2,-0.7c-1.4,-1 -2.3,-2.8 -2.3,-5c-0.1,-4.7 2.4,-11.5 6.7,-18.1c5.4,-8.3 12.3,-14.1 16.8,-14.3c1,0 1.9,0.2 2.6,0.6c1.9,1.2 2.9,4.1 0.8,7.9c-0.3,0.5 -0.9,0.7 -1.4,0.4c-0.5,-0.3 -0.7,-0.9 -0.4,-1.4c1.3,-2.3 1.2,-4.4 -0.2,-5.2c-0.3,-0.2 -0.7,-0.3 -1.3,-0.3c-3.3,0.1 -9.6,4.8 -15.2,13.4c-4.1,6.2 -6.5,12.6 -6.4,16.9c0,1.6 0.5,2.8 1.4,3.4l0.1,0.1c0.4,0.4 2.2,0.5 4.8,-1.6c0.4,-0.4 1.1,-0.3 1.4,0.1c0.4,0.4 0.3,1.1 -0.1,1.4c-2.1,1.8 -3.8,2.4 -5.1,2.4z"></path><path d="M40,31c-0.4,0 -0.8,-0.2 -0.9,-0.6c-0.2,-0.5 0.1,-1.1 0.6,-1.3c2.5,-1 4.3,-2.6 4.3,-4c0.2,-2.9 -7.2,-6.3 -19.8,-7c-1.2,-0.1 -2.2,-0.1 -3.2,-0.1c-9.9,0 -16.9,2.1 -17,5.1c-0.1,1.2 2,3.1 4.4,4c0.5,0.2 0.8,0.8 0.6,1.3c-0.2,0.5 -0.8,0.8 -1.3,0.6c-2.9,-1.1 -5.8,-3.5 -5.6,-6c0.1,-4.4 7.2,-7 18.9,-7c1,0 2.1,0 3.3,0.1c11,0.6 22,3.6 21.7,9.1c-0.1,2.3 -2.3,4.5 -5.6,5.8c-0.2,0 -0.3,0 -0.4,0z"></path><path d="M32.1,44c-0.6,0 -1.3,-0.1 -2,-0.4c-4.5,-1.5 -10.1,-7.9 -13.8,-15.7c-2.5,-5.2 -4.2,-11.9 -4.3,-17.2c-0.1,-3.3 0.7,-5.4 2.4,-6.3c0.5,-0.2 1,-0.4 1.5,-0.4c1.6,-0.1 3.5,0.9 5.8,3.3c0.4,0.4 0.4,1 0,1.4c-0.4,0.4 -1,0.4 -1.4,0c-2.4,-2.4 -3.7,-2.7 -4.2,-2.7c-0.3,0 -0.5,0.1 -0.8,0.2c-0.9,0.5 -1.4,2 -1.3,4.5c0.1,4.1 1.3,10.8 4,16.4c4.1,8.5 9.4,13.6 12.7,14.7c0.9,0.3 1.7,0.3 2.3,0.1c1.9,-1.7 1.2,-9.8 -2.9,-19.4c-0.2,-0.5 0,-1.1 0.5,-1.3c0.5,-0.2 1.1,0 1.3,0.5c3.8,8.8 5.8,19.2 2.2,21.9l-0.1,0c-0.6,0.3 -1.2,0.4 -1.9,0.4z"></path><path d="M27,24c0,1.7 -1.3,3 -3,3c-1.7,0 -3,-1.3 -3,-3c0,-1.7 1.3,-3 3,-3c1.7,0 3,1.3 3,3z"></path></g></g></svg>